<svg width="629" height="506" viewBox="0 0 629 506" fill="none" xmlns="http://www.w3.org/2000/svg">
<mask id="mask0_1455_6846" style="mask-type:alpha" maskUnits="userSpaceOnUse" x="0" y="0" width="629" height="506">
<rect width="629" height="506" fill="#D9D9D9"/>
</mask>
<g mask="url(#mask0_1455_6846)">
<path style="mix-blend-mode:screen" d="M308.526 506.23C448.186 506.23 561.402 392.802 561.402 252.882C561.402 112.962 448.186 -0.465942 308.526 -0.465942C168.867 -0.465942 55.6504 112.962 55.6504 252.882C55.6504 392.802 168.867 506.23 308.526 506.23Z" fill="url(#paint0_radial_1455_6846)"/>
<path d="M453.725 485.283C449.115 472.462 441.792 453.071 438.291 448.624C430.351 438.521 417.776 432.395 405.522 429.455C380.816 423.527 349.182 435.236 326.301 423.354C293.656 406.408 326.597 378.296 346.372 369.576C395.635 347.863 457.202 337.241 510.534 348.406C527.719 352.013 545.053 363.351 531.048 381.878C518.868 398.009 493.299 398.009 482.031 415.424C475.053 426.219 478.998 491.038 463.81 497.239" stroke="#00FFEC" stroke-width="1.2" stroke-linecap="round" stroke-linejoin="round"/>
<path d="M591.974 309.5C590.026 401.813 466.374 375.999 403.254 386.522C352.117 395.045 243.653 448.056 195.006 423.428C135.239 393.167 192.097 350.309 165.69 328.892C117.413 289.713 44.1092 365.328 32.7673 259.601C15.6065 99.6777 201.959 18.5549 336.904 33.4505C467.089 47.8026 594.76 176.922 591.949 309.5H591.974Z" stroke="#00FFEC" stroke-width="1.2" stroke-linecap="round" stroke-linejoin="round"/>
<path d="M231.007 393.587C241.042 372.294 258.943 355.941 276.399 340.18C306.801 312.662 337.153 285.094 367.455 257.452C373.003 252.388 378.748 247.028 381.189 239.938C385.454 227.612 378.033 213.605 367.159 206.417C356.286 199.228 342.823 197.376 329.83 196.338C305.74 194.387 279.974 194.955 259.633 208.023C249.943 214.248 242.102 222.943 235.198 232.157C208.471 267.778 195.65 312.934 197.154 357.299C197.77 375.357 198.929 407.149 210.148 422.291C228.27 446.747 224.522 407.47 231.031 393.637L231.007 393.587Z" stroke="#00FFEC" stroke-width="1.2" stroke-linecap="round" stroke-linejoin="round"/>
<path d="M103.334 265.703C90.0692 255.402 75.3247 242.507 76.0891 225.685C76.3603 219.806 78.604 214.198 81.4888 209.085C87.1351 199.105 98.3291 189.817 109.104 193.745C118.276 197.079 121.901 208.047 123.158 217.731C124.416 227.414 124.859 238.11 131.492 245.299C134.204 248.238 137.73 250.288 140.565 253.08C148.431 260.812 154.595 288.528 140.935 294.16C127.843 299.57 112.531 272.817 103.359 265.678L103.334 265.703Z" stroke="#00FFEC" stroke-width="1.2" stroke-linecap="round" stroke-linejoin="round"/>
<path d="M571.192 345.862C580.488 325.828 583.027 302.781 581.301 280.623C579.23 254.364 571.612 228.896 564.017 203.675C557.681 182.678 549.248 159.186 529.153 150.466C519.291 146.168 508.072 146.291 497.42 147.872C486.769 149.453 475.328 153.158 469.756 162.397C462.359 174.699 468.646 190.459 475.526 203.082C482.405 215.705 490.024 230.304 484.796 243.693C482.75 248.93 478.854 253.352 477.178 258.737C472.813 272.792 484.747 286.379 496.434 295.272C508.121 304.164 521.929 313.872 523.236 328.521C523.951 336.45 520.671 344.182 519.932 352.137C519.389 357.942 520.992 364.661 524.962 368.465" stroke="#00FFEC" stroke-width="1.2" stroke-linecap="round" stroke-linejoin="round"/>
<path d="M394.851 85.0539C382.745 76.9515 374.485 63.2663 360.998 57.733C352.023 54.0523 341.988 54.5217 332.322 55.2874C321.104 56.1767 308.504 58.1529 301.946 67.3175C290.653 83.1024 306.926 104.816 324.654 112.671C342.382 120.527 363.759 123.343 375.989 138.411C395.295 162.224 379.194 199.797 392.681 227.34C400.399 243.1 416.869 253.327 423.872 269.408C435.09 295.173 418.743 327.558 432.205 352.235C441.254 368.835 463.84 376.419 481.05 368.638C502.23 359.053 509.922 333.14 513.202 310.093C519.588 265.135 524.815 200.982 507.58 157.16C501.021 140.461 487.929 128.036 473.899 117.365C449.539 98.8378 419.212 101.357 394.851 85.0786V85.0539Z" stroke="#00FFEC" stroke-width="1.2" stroke-linecap="round" stroke-linejoin="round"/>
<path d="M276.592 164.447C278.688 139.251 277.899 109.707 257.854 94.342C243.75 83.5223 224.444 83.4235 206.667 83.794C181.197 84.3375 154.741 85.128 132.032 96.7134C109.324 108.274 91.6451 134.014 97.8585 158.766C103.036 179.417 122.613 193.127 142.117 201.575C161.62 210.023 182.898 215.433 199.739 228.451C241.778 260.985 220.401 297.421 222.496 340.378C224.247 376.543 258.125 391.191 288.896 376.073C327.039 357.349 305.835 332.202 291.164 304.634C267.371 259.972 272.549 213.087 276.617 164.423L276.592 164.447Z" stroke="#00FFEC" stroke-width="1.2" stroke-linecap="round" stroke-linejoin="round"/>
<path d="M418.415 412.287C428.499 415.943 440.211 414.782 449.383 409.199C453.328 406.803 456.977 403.567 461.514 402.702C466.051 401.838 471.747 404.901 471.328 409.52C471.007 413.028 467.53 415.251 464.374 416.783C457.125 420.291 449.235 423.033 441.197 422.637C436.71 422.415 432.321 421.229 428.006 420.044C422.607 418.561 408.774 417.573 405.791 412.065C401.821 404.777 415.506 411.002 418.415 412.312V412.287Z" stroke="#00FFEC" stroke-width="1.2" stroke-linecap="round" stroke-linejoin="round"/>
<path d="M165.251 121.663C170.651 115.29 175.607 105.532 170.059 99.3072C166.533 95.3548 159.95 94.7866 157.312 90.192C158.52 92.2917 80.7784 147.65 74.8362 154.715C63.4203 168.301 41.8953 190.187 56.2699 208.665C62.6066 216.817 68.746 218.373 78.1155 214.939C96.9529 208.047 85.8576 195.227 91.9724 181.912C97.594 169.635 116.949 163.558 127.428 156.222C141.458 146.415 154.205 134.78 165.251 121.712V121.663Z" stroke="#00FFEC" stroke-width="1.2" stroke-linecap="round" stroke-linejoin="round"/>
<path d="M360.337 170.944C362.815 161.37 357.078 151.595 347.521 149.112C337.965 146.629 328.209 152.377 325.73 161.951C323.251 171.526 328.989 181.3 338.546 183.783C348.102 186.266 357.858 180.518 360.337 170.944Z" stroke="#00FFEC" stroke-width="1.2" stroke-linecap="round" stroke-linejoin="round"/>
<path d="M477.129 318.072C477.129 326.915 469.954 334.104 461.127 334.104C452.3 334.104 445.125 326.915 445.125 318.072C445.125 309.228 452.3 302.04 461.127 302.04C469.954 302.04 477.129 309.228 477.129 318.072Z" stroke="#00FFEC" stroke-width="1.2" stroke-linecap="round" stroke-linejoin="round"/>
<path d="M438.021 213.506C446.859 213.506 454.023 206.329 454.023 197.475C454.023 188.62 446.859 181.443 438.021 181.443C429.184 181.443 422.02 188.62 422.02 197.475C422.02 206.329 429.184 213.506 438.021 213.506Z" stroke="#00FFEC" stroke-width="1.2" stroke-linecap="round" stroke-linejoin="round"/>
<path d="M397.757 287.836C397.757 294.753 392.16 300.336 385.281 300.336C378.402 300.336 372.805 294.728 372.805 287.836C372.805 280.944 378.402 275.337 385.281 275.337C392.16 275.337 397.757 280.944 397.757 287.836Z" stroke="#00FFEC" stroke-width="1.2" stroke-linecap="round" stroke-linejoin="round"/>
<path d="M445.592 147.329C454.429 147.329 461.594 140.151 461.594 131.297C461.594 122.443 454.429 115.265 445.592 115.265C436.754 115.265 429.59 122.443 429.59 131.297C429.59 140.151 436.754 147.329 445.592 147.329Z" stroke="#00FFEC" stroke-width="1.2" stroke-linecap="round" stroke-linejoin="round"/>
<path d="M283.6 404.703C292.437 404.703 299.602 397.526 299.602 388.671C299.602 379.817 292.437 372.64 283.6 372.64C274.762 372.64 267.598 379.817 267.598 388.671C267.598 397.526 274.762 404.703 283.6 404.703Z" stroke="#0062FF" stroke-width="1.2" stroke-linecap="round" stroke-linejoin="round"/>
<path d="M176.467 368.44C187.489 344.405 206.918 326.94 229.626 312.934C292.204 274.299 322.186 222.177 259.189 174.205C215.153 140.684 230.292 140.708 233.473 98.0226C235.741 67.4904 230.07 44.3443 186.946 54.8675C153.438 63.0687 132.357 98.3191 134.921 131.544C137.436 164.349 168.898 180.998 174.643 210.443C181.226 244.138 153.019 260.466 149.863 291.813C149.296 297.371 159.528 357.373 168.232 375.184" stroke="#0097FF" stroke-width="1.2" stroke-linecap="round" stroke-linejoin="round"/>
<path d="M300.785 183.024C303.201 157.481 317.551 132.779 340.605 121.935C367.357 109.361 404.219 120.477 415.561 147.823C423.352 166.597 419.037 189.15 428.727 207.034C432.574 214.149 438.417 219.979 442.683 226.871C454.37 245.718 452.225 272.15 437.603 288.824C415.635 313.897 374.163 313.971 352.588 339.365C344.304 349.123 317.108 335.215 308.971 337.71" stroke="#0097FF" stroke-width="1.2" stroke-linecap="round" stroke-linejoin="round"/>
<path d="M166.824 178.874C169.241 153.331 183.591 128.629 206.644 117.785C233.396 105.211 270.258 116.327 281.6 143.673C289.391 162.447 285.076 185 294.766 202.884C298.613 209.999 304.456 215.829 308.722 222.72C320.409 241.568 318.264 268 303.642 284.674C281.674 309.747 240.202 309.821 218.627 335.215C210.343 344.973 183.147 331.065 175.01 333.56" stroke="#0097FF" stroke-width="1.2" stroke-linecap="round" stroke-linejoin="round"/>
<path d="M539.68 309.5C543.107 280.944 532.973 251.054 512.927 230.477C504.298 221.634 493.671 214.025 488.715 202.712C483.734 191.373 488.271 174.625 500.525 172.945C509.821 171.661 517.711 179.417 523.604 186.754C537.091 203.601 548.975 222.523 552.821 243.767C554.967 255.624 554.498 267.778 554.03 279.808C553.463 294.778 559.207 331.51 546.707 342.651C530.113 357.398 538.102 317.924 539.704 309.5H539.68Z" stroke="#0097FF" stroke-width="1.2" stroke-linecap="round" stroke-linejoin="round"/>
<path d="M334.912 63.7851C303.87 55.3368 269.154 61.7101 243.141 80.6321C231.947 88.7839 221.813 99.3319 208.474 102.988C195.135 106.669 177.358 98.8872 177.481 85.0292C177.58 74.4812 187.418 66.9964 196.516 61.6607C217.35 49.433 240.232 39.305 264.346 38.5145C277.808 38.0698 291.172 40.5648 304.412 43.035C320.858 46.0981 362.453 45.7029 372.735 61.4136C386.345 82.2378 343.986 66.947 334.937 63.7851H334.912Z" stroke="#0097FF" stroke-width="1.2" stroke-linecap="round" stroke-linejoin="round"/>
<path d="M70.3184 289.343C79.156 289.343 86.3203 282.165 86.3203 273.311C86.3203 264.457 79.156 257.279 70.3184 257.279C61.4807 257.279 54.3164 264.457 54.3164 273.311C54.3164 282.165 61.4807 289.343 70.3184 289.343Z" stroke="#0097FF" stroke-width="1.2" stroke-linecap="round" stroke-linejoin="round"/>
<path d="M196.389 192.065C209.38 192.065 219.912 181.514 219.912 168.499C219.912 155.483 209.38 144.933 196.389 144.933C183.398 144.933 172.867 155.483 172.867 168.499C172.867 181.514 183.398 192.065 196.389 192.065Z" stroke="#0097FF" stroke-width="1.2" stroke-linecap="round" stroke-linejoin="round"/>
<path d="M277.022 213.12H299.678L330.91 304H309.406L302.366 283.648H274.078L267.166 304H245.662L277.022 213.12ZM298.91 269.184L288.286 234.24L277.406 269.184H298.91ZM339.86 304V213.12H360.852V304H339.86Z" fill="white" fillOpacity="0.3"/>
</g>
<defs>
<radialGradient id="paint0_radial_1455_6846" cx="0" cy="0" r="1" gradientUnits="userSpaceOnUse" gradientTransform="translate(308.526 252.882) scale(252.876 253.348)">
<stop stopColor="#008F91"/>
<stop offset="0.1" stopColor="#00696B"/>
<stop offset="0.21" stopColor="#00494A"/>
<stop offset="0.32" stopColor="#002E2F"/>
<stop offset="0.45" stopColor="#00191A"/>
<stop offset="0.58" stopColor="#000B0B"/>
<stop offset="0.75" stopColor="#000202"/>
<stop offset="1"/>
</radialGradient>
</defs>
</svg>
