<svg width="22" height="20" viewBox="0 0 22 20" fill="none" xmlns="http://www.w3.org/2000/svg">
<path d="M5.47771 19.7265V6.76032H1.17177V19.7265H5.47816H5.47771ZM3.32564 4.99031C4.82689 4.99031 5.76152 3.99466 5.76152 2.75038C5.73342 1.47775 4.82689 0.509888 3.35419 0.509888C1.88048 0.509888 0.917969 1.47775 0.917969 2.75027C0.917969 3.99455 1.85226 4.9902 3.29743 4.9902H3.3253L3.32564 4.99031ZM7.8611 19.7265H12.1667V12.4864C12.1667 12.0994 12.1948 11.7113 12.3085 11.4349C12.6197 10.6603 13.3282 9.85854 14.5179 9.85854C16.0756 9.85854 16.6991 11.0475 16.6991 12.7907V19.7265H21.0046V12.2921C21.0046 8.3096 18.8806 6.45634 16.0477 6.45634C13.7252 6.45634 12.7051 7.75563 12.1384 8.64058H12.167V6.76077H7.86132C7.91753 7.97715 7.86099 19.727 7.86099 19.727L7.8611 19.7265Z" fill="white"/>
</svg>
