<svg width="26" height="22" viewBox="0 0 26 22" fill="none" xmlns="http://www.w3.org/2000/svg">
<path d="M24.9136 3.40066C24.1211 3.74205 23.2879 3.97977 22.4346 4.10796C22.8335 4.03951 23.4205 3.3208 23.6542 3.0299C24.0091 2.5911 24.2797 2.09017 24.452 1.55256C24.452 1.51263 24.4919 1.45559 24.452 1.42707C24.4319 1.41609 24.4094 1.41033 24.3865 1.41033C24.3636 1.41033 24.341 1.41609 24.3209 1.42707C23.3944 1.92927 22.4083 2.31255 21.386 2.56787C21.3503 2.57877 21.3124 2.57975 21.2763 2.5707C21.2401 2.56166 21.2071 2.54293 21.1808 2.51654C21.1012 2.4217 21.0156 2.33214 20.9244 2.24845C20.5074 1.87452 20.0343 1.56848 19.5224 1.34151C18.8315 1.05778 18.0851 0.934904 17.3397 0.982159C16.6165 1.02788 15.9104 1.22203 15.2653 1.55256C14.6301 1.90103 14.0718 2.37444 13.624 2.94434C13.153 3.53091 12.8129 4.21164 12.6267 4.94074C12.4731 5.63426 12.4557 6.35105 12.5754 7.05122C12.5754 7.17101 12.5754 7.18812 12.4728 7.17101C8.40949 6.57209 5.07561 5.12897 2.35151 2.0317C2.23184 1.8948 2.16915 1.8948 2.07227 2.0317C0.886886 3.83416 1.46248 6.68617 2.9442 8.09506C3.14367 8.28329 3.34883 8.46582 3.56539 8.63694C2.88603 8.58866 2.22326 8.4044 1.61635 8.09506C1.50237 8.0209 1.43968 8.06083 1.43398 8.19773C1.41783 8.38752 1.41783 8.57834 1.43398 8.76813C1.5529 9.67769 1.91103 10.5393 2.47176 11.2649C3.03249 11.9905 3.7757 12.554 4.62539 12.8978C4.83252 12.9866 5.04835 13.0535 5.26937 13.0975C4.64045 13.2214 3.99541 13.2407 3.36023 13.1545C3.22345 13.126 3.17216 13.2001 3.22345 13.3313C4.0612 15.6129 5.87916 16.3088 7.21271 16.6967C7.39508 16.7252 7.57744 16.7252 7.78261 16.7709C7.78261 16.7709 7.78261 16.7709 7.74841 16.8051C7.35518 17.5238 5.76518 18.0086 5.03572 18.2596C3.70426 18.7383 2.28467 18.9212 0.875488 18.7958C0.653229 18.7616 0.601939 18.7673 0.544949 18.7958C0.48796 18.8243 0.544949 18.887 0.607638 18.9441C0.892585 19.1323 1.17753 19.2977 1.47388 19.4574C2.3561 19.9391 3.28878 20.3216 4.25496 20.5982C9.25863 21.9786 14.8892 20.9633 18.6448 17.2272C21.5968 14.2953 22.634 10.2512 22.634 6.20133C22.634 6.04732 22.8221 5.95605 22.9304 5.8762C23.6772 5.29376 24.3357 4.60591 24.8851 3.83416C24.9803 3.71912 25.0291 3.57265 25.0219 3.42347C25.0219 3.33791 25.0219 3.35503 24.9136 3.40066Z" fill="white"/>
</svg>
