<svg width="24" height="25" viewBox="0 0 24 25" fill="none" xmlns="http://www.w3.org/2000/svg">
<path d="M0 24.1114L1.72195 17.7088C0.333239 15.2147 -0.107966 12.3042 0.47929 9.51154C1.06655 6.71885 2.64287 4.23125 4.91901 2.50522C7.19515 0.77918 10.0184 -0.0695088 12.8707 0.114884C15.7231 0.299276 18.4131 1.50438 20.4473 3.50906C22.4815 5.51374 23.7233 8.18352 23.9449 11.0285C24.1665 13.8735 23.353 16.7028 21.6537 18.9973C19.9544 21.2918 17.4832 22.8976 14.6937 23.52C11.9042 24.1424 8.9835 23.7396 6.46746 22.3856L0 24.1114ZM6.77931 19.9897L7.17929 20.2265C9.00171 21.3049 11.1303 21.7512 13.2333 21.4958C15.3362 21.2404 17.2955 20.2976 18.8058 18.8144C20.3161 17.3312 21.2925 15.391 21.5828 13.2959C21.8732 11.2009 21.4613 9.06884 20.4112 7.23196C19.3611 5.39508 17.7318 3.95658 15.7774 3.14064C13.8229 2.32469 11.6529 2.17714 9.60563 2.72096C7.55837 3.26478 5.7488 4.46944 4.45892 6.1472C3.16904 7.82496 2.4713 9.88158 2.47445 11.9966C2.47273 13.7502 2.95853 15.47 3.87777 16.9643L4.1286 17.3772L3.16594 20.9507L6.77931 19.9897Z" fill="white"/>
<path fillRule="evenodd" clipRule="evenodd" d="M16.4865 13.6406C16.252 13.4518 15.9775 13.3189 15.6838 13.252C15.3901 13.1852 15.0849 13.1861 14.7917 13.2548C14.351 13.4375 14.0663 14.1279 13.7815 14.473C13.7215 14.5558 13.6333 14.6138 13.5334 14.6362C13.4336 14.6587 13.329 14.644 13.2392 14.5949C11.6259 13.9641 10.2737 12.8072 9.40211 11.3123C9.32776 11.2191 9.29258 11.1006 9.30396 10.982C9.31534 10.8633 9.3724 10.7537 9.46312 10.6761C9.78069 10.3623 10.0139 9.97355 10.1411 9.54588C10.1693 9.07415 10.061 8.60427 9.8292 8.19226C9.64997 7.61465 9.30887 7.10032 8.8462 6.71006C8.60757 6.60291 8.34298 6.56698 8.08435 6.60661C7.82573 6.64624 7.58411 6.75974 7.38865 6.9334C7.04932 7.22568 6.77999 7.59022 6.60048 8.00018C6.42097 8.41014 6.33586 8.85508 6.35141 9.30223C6.35246 9.55333 6.38434 9.80336 6.44633 10.0467C6.60375 10.6314 6.84583 11.19 7.16493 11.7049C7.39516 12.0993 7.64635 12.4811 7.91744 12.8487C8.79844 14.0561 9.90588 15.0813 11.1783 15.8673C11.8168 16.2667 12.4992 16.5914 13.2121 16.8351C13.9526 17.1702 14.7702 17.2989 15.5781 17.2073C16.0383 17.1378 16.4745 16.9564 16.848 16.679C17.2216 16.4017 17.5211 16.0369 17.7203 15.6168C17.8374 15.3631 17.8729 15.0794 17.822 14.8047C17.7 14.2429 16.9475 13.9113 16.4865 13.6406Z" fill="white"/>
</svg>
